<svg preserveAspectRatio="xMidYMid meet" width="24" height="20.072" overflow="visible" style="display: block;" viewBox="0 0 24 20.072" fill="none" xmlns="http://www.w3.org/2000/svg">
<g id="Branding / Icons / Reporting">
<path id="Vector" d="M18.616 10.036L16 11.544L12 13.856L8 11.544L5.384 10.036L4 10.836L0 13.144L4 15.456L8 17.764L12 20.072L16 17.764L20 15.456L24 13.144L20 10.836L18.616 10.036Z" fill="var(--fill-0, #89C4C4)"/>
<path id="Vector_2" d="M12 6.21601L16 8.52801L18.616 10.036L20 9.23601L24 6.92801L20 4.61601L16 2.308L12 0L8 2.308L4 4.61601L0 6.92801L4 9.23601L5.384 10.036L8 8.52801L12 6.21601Z" fill="var(--fill-0, #238D8D)"/>
</g>
</svg>
